<?xml version="1.0" encoding="UTF-8"?>
<svg width="64px" height="64px" viewBox="0 0 64 64" version="1.1" xmlns="http://www.w3.org/2000/svg" xmlns:xlink="http://www.w3.org/1999/xlink">
    <!-- Generator: Sketch 44.1 (41455) - http://www.bohemiancoding.com/sketch -->
    <title>Socialmedia_linkedin</title>
    <desc>Created with Sketch.</desc>
    <defs></defs>
    <g id="Icons-2017" stroke="none" stroke-width="1" fill="none" fill-rule="evenodd">
        <g id="Socialmedia_linkedin" fill="#000000">
            <g id="Group-9">
                <path d="M0,64 L0,0 L64,0 L64,64 L0,64 Z M10.9399578,53.76 L19.7792109,53.76 L19.7792109,24.6910671 L10.9399578,24.6910671 L10.9399578,53.76 Z M15.3624939,10.24 C12.5269167,10.24 10.24,12.5887984 10.24,15.4771396 C10.24,18.3688848 12.5269167,20.7176832 15.3624939,20.7176832 C18.1889268,20.7176832 20.48,18.3688848 20.48,15.4771396 C20.48,12.5887984 18.1889268,10.24 15.3624939,10.24 Z M25.6,23.7850304 L25.6,53.76 L34.6224249,53.76 L34.6224249,38.9295947 C34.6224249,35.0219145 35.3384364,31.2353346 40.0401317,31.2353346 C44.6686952,31.2353346 44.735024,35.7072723 44.735024,39.1867135 L44.735024,53.76 L53.76,53.76 L53.76,37.3184335 C53.76,29.2450767 52.0694646,23.04 42.9296887,23.04 C38.5349769,23.04 35.585894,25.5234347 34.3817702,27.8813814 L34.2584666,27.8813814 L34.2584666,23.7850304 L25.6,23.7850304 Z" id="Combined-Shape"></path>
            </g>
        </g>
    </g>
</svg>