<?xml version="1.0" encoding="UTF-8"?>
<svg width="64px" height="64px" viewBox="0 0 64 64" version="1.1" xmlns="http://www.w3.org/2000/svg" xmlns:xlink="http://www.w3.org/1999/xlink">
    <!-- Generator: Sketch 44.1 (41455) - http://www.bohemiancoding.com/sketch -->
    <title>Socialmedia_youtube</title>
    <desc>Created with Sketch.</desc>
    <defs></defs>
    <g id="Icons-2017" stroke="none" stroke-width="1" fill="none" fill-rule="evenodd">
        <g id="Socialmedia_youtube" fill="#000000">
            <path d="M0,64 L0,0 L64,0 L64,64 L0,64 Z M27.5435836,6.25299558 L24.6281233,6.25299558 L22.6621197,13.8121309 L20.6162869,6.25299558 L17.5819323,6.25299558 C18.1891429,8.03556216 18.8226802,9.83001818 19.4298908,11.6159817 C20.35387,14.3004472 20.9313571,16.3233503 21.1920755,17.7059222 L21.1920755,25.5028463 L24.0752644,25.5028463 L24.0752644,17.7059222 L27.5435836,6.25299558 Z M35.2487892,20.8583219 L35.2487892,15.8324863 C35.2487892,14.3004472 34.985523,13.1802922 34.4403073,12.4533379 C33.720147,11.4741577 32.7095447,10.9832937 31.4076512,10.9832937 C30.1134008,10.9832937 29.0994015,11.4741577 28.3809397,12.4533379 C27.8272316,13.1802922 27.5665132,14.3004472 27.5665132,15.8324863 L27.5665132,20.8583219 C27.5665132,22.3835671 27.8272316,23.5130638 28.3809397,24.2332241 C29.0994015,25.2107058 30.1134008,25.7015698 31.4076512,25.7015698 C32.7095447,25.7015698 33.720147,25.2107058 34.4403073,24.2332241 C34.985523,23.5130638 35.2487892,22.3835671 35.2487892,20.8583219 Z M32.6475498,21.3474874 C32.6475498,22.6748583 32.2458566,23.3389684 31.4076512,23.3389684 C30.5685965,23.3389684 30.1660541,22.6748583 30.1660541,21.3474874 L30.1660541,15.3118987 C30.1660541,13.9845278 30.5685965,13.3238147 31.4076512,13.3238147 C32.2458566,13.3238147 32.6475498,13.9845278 32.6475498,15.3118987 L32.6475498,21.3474874 Z M44.8614005,25.5028463 L44.8614005,11.1573891 L42.2618596,11.1573891 L42.2618596,22.1219994 C41.6843726,22.936426 41.1383076,23.3389684 40.6194185,23.3389684 C40.2695293,23.3389684 40.0665596,23.133451 40.0105094,22.7300593 C39.9782381,22.645984 39.9782381,22.3283661 39.9782381,21.7186078 L39.9782381,11.1573891 L37.3863404,11.1573891 L37.3863404,22.500763 C37.3863404,23.5130638 37.474662,24.2001035 37.6181845,24.634068 C37.8763551,25.3610223 38.4538422,25.7015698 39.2920476,25.7015698 C40.2398057,25.7015698 41.2257799,25.124932 42.2618596,23.9376866 L42.2618596,25.5028463 L44.8614005,25.5028463 Z M53.2825201,42.9140802 C53.2825201,39.5918313 53.2850679,36.0776529 52.5445257,32.8505195 C52.0256366,30.5889784 50.1742811,28.9193615 47.9441621,28.6705325 C42.6661005,28.0794575 37.322647,28.0786083 32.0055201,28.0794575 C26.687544,28.0786083 21.3457889,28.0794575 16.0668781,28.6705325 C13.8376083,28.9193615 11.9871021,30.5889784 11.4673638,32.8505195 C10.7251231,36.0776529 10.7174799,39.5918313 10.7174799,42.9140802 C10.7174799,46.2320829 10.7174799,49.7530553 11.4588713,52.9759425 C11.9777604,55.2383328 13.8291159,56.9071005 16.0583856,57.157628 C21.3364472,57.7470044 26.6782023,57.7504014 31.9970276,57.7470044 C37.3141545,57.7504014 42.657608,57.7470044 47.9356696,57.157628 C50.1649394,56.9071005 52.0162949,55.2383328 52.5360332,52.9759425 C53.2799724,49.7530553 53.2825201,46.2320829 53.2825201,42.9140802 Z M22.8582954,35.7532411 L19.7755338,35.7532411 L19.7755338,52.1224506 L16.9152745,52.1224506 L16.9152745,35.7532411 L13.888563,35.7532411 L13.888563,33.0696249 L22.8582954,33.0696249 L22.8582954,35.7532411 Z M28.0548294,52.1224506 L28.0548294,50.5751251 C27.0340362,51.747084 26.0624992,52.3186263 25.1164395,52.3186263 C24.2867266,52.3186263 23.7160335,51.9823251 23.4595613,51.2621648 C23.3177373,50.830748 23.2319635,50.1547485 23.2319635,49.1517894 L23.2319635,37.9256114 L25.8034793,37.9256114 L25.8034793,48.3781266 C25.8034793,48.9793925 25.8034793,49.2953119 25.8272581,49.378538 C25.8901023,49.7768342 26.0845796,49.9789546 26.428524,49.9789546 C26.9448654,49.9789546 27.4866841,49.5806584 28.0548294,48.7764228 L28.0548294,37.9256114 L30.6305914,37.9256114 L30.6305914,52.1224506 L28.0548294,52.1224506 Z M40.4020117,47.8634838 C40.4020117,49.1755683 40.3136901,50.1224771 40.1421425,50.7228938 C39.7990473,51.7793554 39.1120075,52.3186263 38.0861188,52.3186263 C37.170632,52.3186263 36.2882658,51.8099282 35.4288292,50.7475219 L35.4288292,52.1224506 L32.8573135,52.1224506 L32.8573135,33.0696249 L35.4288292,33.0696249 L35.4288292,39.2920476 C36.2602407,38.2712544 37.1417577,37.7532145 38.0861188,37.7532145 C39.1120075,37.7532145 39.7990473,38.2916363 40.1421425,39.3540425 C40.3136901,39.9255849 40.4020117,40.866549 40.4020117,42.2083571 L40.4020117,47.8634838 Z M37.8304959,48.0656042 L37.8304959,42.0062366 C37.8304959,40.7264235 37.4525816,40.0682581 36.7111901,40.0682581 C36.2882658,40.0682581 35.8585475,40.2712278 35.4288292,40.6941521 L35.4288292,49.3479651 C35.8585475,49.7768342 36.2882658,49.9789546 36.7111901,49.9789546 C37.4525816,49.9789546 37.8304959,49.3479651 37.8304959,48.0656042 Z M50.111437,47.580685 C50.111437,48.4078502 50.0791656,48.9793925 50.0545375,49.2384124 C49.9679144,49.8065578 49.765794,50.3245976 49.4558193,50.7797933 C48.742453,51.8099282 47.6876899,52.3186263 46.3450326,52.3186263 C44.9964305,52.3186263 43.9730895,51.8337071 43.2308488,50.8630193 C42.6847839,50.1547485 42.4045328,49.032895 42.4045328,47.5271825 L42.4045328,42.5540001 C42.4045328,41.0355489 42.6516633,39.9255849 43.1994268,39.2088215 C43.9408182,38.235586 44.9675562,37.7532145 46.2796407,37.7532145 C47.5696448,37.7532145 48.593835,38.235586 49.3139953,39.2088215 C49.852417,39.9255849 50.111437,41.0355489 50.111437,42.5540001 L50.111437,45.4940885 L44.9675562,45.4940885 L44.9675562,48.009554 C44.9675562,49.3241863 45.3972745,49.9789546 46.2796407,49.9789546 C46.9123287,49.9789546 47.2825998,49.6341609 47.4303685,48.9462719 C47.4541474,48.8061464 47.4847202,48.2380011 47.4847202,47.2061676 L50.111437,47.2061676 L50.111437,47.580685 Z M47.5382227,43.3514417 L47.5382227,42.0393572 C47.5382227,40.7264235 47.1076552,40.0682581 46.2575603,40.0682581 C45.3972745,40.0682581 44.9675562,40.7264235 44.9675562,42.0393572 L44.9675562,43.3514417 L47.5382227,43.3514417 Z" id="Combined-Shape"></path>
        </g>
    </g>
</svg>