<?xml version="1.0" encoding="UTF-8"?>
<svg width="267px" height="11px" viewBox="0 0 267 11" version="1.1" xmlns="http://www.w3.org/2000/svg" xmlns:xlink="http://www.w3.org/1999/xlink">
    <!-- Generator: Sketch 45.1 (43504) - http://www.bohemiancoding.com/sketch -->
    <title>KRAMP.-IT'S-THAT-EAS</title>
    <desc>Created with Sketch.</desc>
    <defs></defs>
    <g id="Frontpage-2017" stroke="none" stroke-width="1" fill="none" fill-rule="evenodd">
        <path d="M0,10.965 L3.33,10.965 L3.33,6.825 L4.8,6.825 L9.6,10.965 L14.325,10.965 L7.725,5.4 L13.605,0.12 L9.09,0.12 L4.905,4.08 L3.33,4.08 L3.33,0.12 L0,0.12 L0,10.965 Z M15.105,10.965 L15.105,0.12 L25.08,0.12 C26.295,0.12 26.94,0.285 27.495,0.765 C28.23,1.38 28.41,1.995 28.41,3.75 C28.41,5.715 28.095,6.225 26.55,6.675 L26.55,6.72 C27.27,6.885 27.69,7.08 27.945,7.44 C28.29,7.875 28.365,8.34 28.365,10.035 L28.365,10.965 L25.035,10.965 C25.065,10.605 25.065,10.26 25.065,10.17 C25.065,8.4 24.885,8.16 23.49,8.16 L18.435,8.16 L18.435,10.965 L15.105,10.965 Z M18.435,2.775 L18.435,5.445 L23.625,5.445 C24.885,5.445 25.185,5.16 25.185,4.125 C25.185,3.075 24.855,2.775 23.625,2.775 L18.435,2.775 Z M29.49,10.965 L35.355,0.12 L39.69,0.12 L45.645,10.965 L41.91,10.965 L40.875,9.03 L34.14,9.03 L33.165,10.965 L29.49,10.965 Z M35.355,6.72 L39.66,6.72 L37.5,2.625 L35.355,6.72 Z M46.755,10.965 L49.95,10.965 L49.95,3.15 L54.33,10.965 L56.85,10.965 L61.335,3.09 L61.335,10.965 L64.53,10.965 L64.53,0.12 L59.4,0.12 L55.635,7.095 L51.87,0.12 L46.755,0.12 L46.755,10.965 Z M66.81,10.965 L66.81,0.12 L75.525,0.12 C78.78,0.12 79.815,1.11 79.815,4.245 C79.815,5.94 79.47,6.9 78.705,7.575 C78.18,8.04 77.535,8.235 76.62,8.235 L70.14,8.235 L70.14,10.965 L66.81,10.965 Z M70.14,2.85 L70.14,5.565 L75.015,5.565 C76.11,5.565 76.38,5.28 76.38,4.245 C76.38,3.15 76.08,2.85 74.955,2.85 L70.14,2.85 Z M81.555,10.965 L84.735,10.965 L84.735,7.89 L81.555,7.89 L81.555,10.965 Z M95.52,0.12 L95.52,10.965 L98.85,10.965 L98.85,0.12 L95.52,0.12 Z M108.345,10.965 L108.345,2.865 L112.98,2.865 L112.98,0.12 L100.365,0.12 L100.365,2.865 L105.015,2.865 L105.015,10.965 L108.345,10.965 Z M113.94,0.12 L113.94,2.715 L114.66,6.075 L116.01,6.075 L116.79,2.715 L116.79,0.12 L113.94,0.12 Z M118.47,7.395 L118.47,7.635 C118.47,9.345 118.68,9.945 119.445,10.47 C120.3,11.07 120.54,11.085 126.825,11.085 C128.955,11.085 129.945,10.965 130.725,10.605 C131.79,10.125 132.12,9.39 132.12,7.68 C132.12,5.895 131.685,5.04 130.53,4.59 C129.885,4.32 129.45,4.26 127.065,4.23 L124.62,4.185 C122.73,4.14 122.43,4.125 122.115,3.99 C121.89,3.885 121.77,3.645 121.77,3.33 C121.77,2.685 122.19,2.43 123.27,2.43 L127.08,2.43 C127.995,2.43 128.355,2.67 128.4,3.27 L128.4,3.525 L131.67,3.525 L131.67,3.09 C131.67,2.16 131.52,1.56 131.22,1.14 C130.965,0.765 130.41,0.405 129.87,0.255 C129.03,0.015 128.64,0 123.945,0 C120.915,0 120.255,0.105 119.4,0.705 C118.68,1.2 118.44,1.89 118.44,3.375 C118.44,4.83 118.68,5.58 119.28,6.045 C119.985,6.555 120.84,6.675 123.345,6.72 L125.97,6.765 C128.34,6.795 128.73,6.9 128.73,7.71 C128.73,8.37 128.355,8.64 127.395,8.64 L123.21,8.64 C122.64,8.64 122.415,8.595 122.22,8.49 C121.92,8.355 121.755,8.01 121.755,7.59 L121.755,7.395 L118.47,7.395 Z M148.56,10.965 L148.56,2.865 L153.195,2.865 L153.195,0.12 L140.58,0.12 L140.58,2.865 L145.23,2.865 L145.23,10.965 L148.56,10.965 Z M154.605,10.965 L157.935,10.965 L157.935,6.855 L164.895,6.855 L164.895,10.965 L168.225,10.965 L168.225,0.12 L164.895,0.12 L164.895,3.975 L157.935,3.975 L157.935,0.12 L154.605,0.12 L154.605,10.965 Z M169.41,10.965 L175.275,0.12 L179.61,0.12 L185.565,10.965 L181.83,10.965 L180.795,9.03 L174.06,9.03 L173.085,10.965 L169.41,10.965 Z M175.275,6.72 L179.58,6.72 L177.42,2.625 L175.275,6.72 Z M191.985,10.965 L188.655,10.965 L188.655,2.865 L184.005,2.865 L184.005,0.12 L196.62,0.12 L196.62,2.865 L191.985,2.865 L191.985,10.965 Z M205.425,10.965 L217.47,10.965 L217.47,8.37 L208.755,8.37 L208.755,6.615 L216.84,6.615 L216.84,4.365 L208.755,4.365 L208.755,2.655 L217.29,2.655 L217.29,0.12 L205.425,0.12 L205.425,10.965 Z M218.31,10.965 L224.175,0.12 L228.51,0.12 L234.465,10.965 L230.73,10.965 L229.695,9.03 L222.96,9.03 L221.985,10.965 L218.31,10.965 Z M224.175,6.72 L228.48,6.72 L226.32,2.625 L224.175,6.72 Z M235.245,7.395 L235.245,7.635 C235.245,9.345 235.455,9.945 236.22,10.47 C237.075,11.07 237.315,11.085 243.6,11.085 C245.73,11.085 246.72,10.965 247.5,10.605 C248.565,10.125 248.895,9.39 248.895,7.68 C248.895,5.895 248.46,5.04 247.305,4.59 C246.66,4.32 246.225,4.26 243.84,4.23 L241.395,4.185 C239.505,4.14 239.205,4.125 238.89,3.99 C238.665,3.885 238.545,3.645 238.545,3.33 C238.545,2.685 238.965,2.43 240.045,2.43 L243.855,2.43 C244.77,2.43 245.13,2.67 245.175,3.27 L245.175,3.525 L248.445,3.525 L248.445,3.09 C248.445,2.16 248.295,1.56 247.995,1.14 C247.74,0.765 247.185,0.405 246.645,0.255 C245.805,0.015 245.415,0 240.72,0 C237.69,0 237.03,0.105 236.175,0.705 C235.455,1.2 235.215,1.89 235.215,3.375 C235.215,4.83 235.455,5.58 236.055,6.045 C236.76,6.555 237.615,6.675 240.12,6.72 L242.745,6.765 C245.115,6.795 245.505,6.9 245.505,7.71 C245.505,8.37 245.13,8.64 244.17,8.64 L239.985,8.64 C239.415,8.64 239.19,8.595 238.995,8.49 C238.695,8.355 238.53,8.01 238.53,7.59 L238.53,7.395 L235.245,7.395 Z M258.345,10.965 L255.015,10.965 L255.015,7.11 L249.12,0.12 L253.14,0.12 L256.755,4.545 L260.49,0.12 L264.45,0.12 L258.345,7.17 L258.345,10.965 Z M263.205,10.965 L263.205,7.89 L266.385,7.89 L266.385,10.965 L263.205,10.965 Z" id="KRAMP.-IT'S-THAT-EAS" fill="#FFFFFF"></path>
    </g>
</svg>